# Blender 4.0.2
# www.blender.org
mtllib jaw-object.mtl
o 2jaw
v 0.204539 0.205152 0.150000
v 0.015133 0.191377 0.150000
v 0.204539 0.205152 -0.150000
v 0.015133 0.191377 -0.150000
v 0.204928 -0.362675 0.150000
v 0.014914 0.511225 0.150000
v 0.204928 -0.362675 -0.150000
v 0.014914 0.511225 -0.150000
v -0.316009 0.204796 0.150000
v -0.126585 0.191280 0.150000
v -0.316009 0.204796 -0.150000
v -0.126585 0.191280 -0.150000
v -0.315620 -0.363032 0.150000
v -0.126804 0.511128 0.150000
v -0.126804 0.511128 -0.150000
v -0.315620 -0.363032 -0.150000
v 0.015124 0.205023 -0.150000
v -0.126594 0.204926 -0.150000
v 0.015124 0.205023 0.150000
v -0.126594 0.204926 0.150000
v -0.269371 -0.363000 -0.150000
v 0.158190 -0.362707 -0.150000
v -0.269371 -0.363000 0.150000
v 0.158190 -0.362707 0.150000
v -0.176534 -0.186573 0.150000
v -0.176534 -0.186573 -0.150000
vn 1.0000 0.0007 -0.0000
vn 0.0007 -1.0000 -0.0000
vn -1.0000 -0.0007 -0.0000
vn -0.0007 1.0000 -0.0000
vn -0.0000 -0.0000 1.0000
vn -0.0000 -0.0000 -1.0000
vn -0.4657 -0.8850 -0.0000
vn 0.8850 -0.4657 -0.0000
vt 0.375000 0.000000
vt 0.625000 0.000000
vt 0.625000 0.250000
vt 0.375000 0.250000
vt 0.625000 0.500000
vt 0.375000 0.500000
vt 0.375000 0.477788
vt 0.625000 0.477788
vt 0.625000 0.272447
vt 0.375000 0.272447
vt 0.625000 0.750000
vt 0.375000 0.750000
vt 0.625000 0.909031
vt 0.625000 1.000000
vt 0.375000 1.000000
vt 0.375000 0.909031
vt 0.625000 0.840969
vt 0.375000 0.840969
vt 0.284031 0.750000
vt 0.284031 0.743992
vt 0.215969 0.743992
vt 0.215969 0.750000
vt 0.125000 0.750000
vt 0.125000 0.500000
vt 0.147447 0.500000
vt 0.308144 0.577648
vt 0.352788 0.500000
vt 0.875000 0.500000
vt 0.875000 0.750000
vt 0.784031 0.750000
vt 0.784031 0.743992
vt 0.715969 0.743992
vt 0.715969 0.750000
vt 0.647212 0.500000
vt 0.691856 0.577648
vt 0.852553 0.500000
vt 0.625000 0.010666
vt 0.375000 0.010666
vt 0.375000 0.739334
vt 0.625000 0.739334
vt 0.125000 0.739334
vt 0.875000 0.739334
vt 0.437500 0.092401
vt 0.562500 0.092401
vt 0.562500 0.250000
vt 0.437500 0.250000
vt 0.437500 0.333067
vt 0.562500 0.333067
s 0
f 1/1/1 5/4/1 7/3/1 3/2/1
f 16/5/2 21/8/2 23/7/2 13/6/2
f 5/4/2 24/10/2 22/9/2 7/3/2
f 13/6/3 9/12/3 11/11/3 16/5/3
f 17/13/4 19/16/4 1/15/4 3/14/4
f 9/12/4 20/18/4 18/17/4 11/11/4
f 13/6/5 23/27/5 25/26/5 24/25/5 5/24/5 1/23/5 19/22/5 2/21/5 10/20/5 20/19/5 9/12/5
f 2/21/5 19/22/5 20/19/5 10/20/5
f 7/28/6 22/36/6 26/35/6 21/34/6 16/5/6 11/11/6 18/33/6 12/32/6 4/31/6 17/30/6 3/29/6
f 18/33/6 17/30/6 4/31/6 12/32/6
f 6/4/1 19/38/1 17/37/1 8/3/1
f 14/6/4 6/4/4 8/3/4 15/5/4
f 15/5/3 18/40/3 20/39/3 14/6/3
f 20/39/5 19/41/5 6/24/5 14/6/5
f 17/42/6 18/40/6 15/5/6 8/28/6
f 24/43/7 25/46/7 26/45/7 22/44/7
f 23/47/8 21/48/8 26/45/8 25/46/8
