# Blender 4.0.2
# www.blender.org
mtllib convex-object.mtl
o 4concave
v -0.206678 -0.205078 0.147833
v -0.206678 -0.205078 -0.147833
v 0.778875 -0.205078 0.147833
v 0.778875 -0.205078 -0.147833
v 0.778875 0.271860 -0.147833
v 0.778875 0.271860 0.147833
v -0.206678 0.278900 -0.147833
v -0.206678 0.278900 0.147833
v 0.775460 0.276032 0.147833
v 0.670099 0.362706 0.147833
v 0.283583 0.480450 0.147833
v 0.147792 0.467236 0.147833
v 0.419342 0.466918 0.147833
v 0.017189 0.427785 0.147833
v 0.549852 0.427161 0.147833
v -0.103208 0.363613 0.147833
v 0.670099 0.362706 -0.147833
v 0.775460 0.276032 -0.147833
v 0.549852 0.427161 -0.147833
v -0.103208 0.363613 -0.147833
v 0.283583 0.480450 -0.147833
v 0.147792 0.467236 -0.147833
v 0.017189 0.427785 -0.147833
v 0.419342 0.466918 -0.147833
vn -0.0000 -1.0000 -0.0000
vn 1.0000 -0.0000 -0.0000
vn -1.0000 -0.0000 -0.0000
vn -0.0000 -0.0000 1.0000
vn -0.0000 -0.0000 -1.0000
vn 0.7738 0.6335 -0.0000
vn 0.6353 0.7723 -0.0000
vn 0.4724 0.8814 -0.0000
vn 0.2914 0.9566 -0.0000
vn 0.0992 0.9951 -0.0000
vn -0.0969 0.9953 -0.0000
vn -0.2892 0.9573 -0.0000
vn -0.4704 0.8825 -0.0000
vn -0.6335 0.7738 -0.0000
vt 0.375000 0.000000
vt 0.625000 0.000000
vt 0.625000 0.250000
vt 0.375000 0.250000
vt 0.625000 0.422832
vt 0.375000 0.422832
vt 0.625000 1.000000
vt 0.375000 1.000000
vt 0.375000 0.824617
vt 0.625000 0.824617
vt 0.331081 0.723753
vt 0.300383 0.750000
vt 0.125000 0.750000
vt 0.125000 0.500000
vt 0.297832 0.500000
vt 0.299343 0.500866
vt 0.330753 0.527593
vt 0.354109 0.558095
vt 0.368516 0.591201
vt 0.373420 0.625638
vt 0.368632 0.660083
vt 0.354336 0.693213
vt 0.645891 0.558095
vt 0.669247 0.527593
vt 0.700657 0.500866
vt 0.702168 0.500000
vt 0.875000 0.500000
vt 0.875000 0.750000
vt 0.699617 0.750000
vt 0.668919 0.723753
vt 0.645664 0.693213
vt 0.631368 0.660083
vt 0.626580 0.625638
vt 0.631483 0.591201
vt 0.376235 0.751593
vt 0.375000 0.751593
vt 0.375000 0.748407
vt 0.376235 0.748407
vt 0.343750 0.748407
vt 0.375000 0.748407
vt 0.375000 0.751593
vt 0.343750 0.751593
vt 0.312500 0.751593
vt 0.312500 0.748407
vt 0.343750 0.748407
vt 0.281250 0.751593
vt 0.281250 0.748407
vt 0.312500 0.748407
vt 0.250000 0.751593
vt 0.250000 0.748407
vt 0.281250 0.748407
vt 0.218750 0.751593
vt 0.218750 0.748407
vt 0.250000 0.748407
vt 0.187500 0.751593
vt 0.187500 0.748407
vt 0.218750 0.748407
vt 0.156250 0.751593
vt 0.156250 0.748407
vt 0.187500 0.748407
vt 0.187500 0.751593
vt 0.125620 0.751593
vt 0.125620 0.748407
vt 0.156250 0.748407
s 0
f 1/1/1 2/2/1 4/3/1 3/4/1
f 3/4/2 4/3/2 5/5/2 6/6/2
f 2/7/3 1/8/3 8/9/3 7/10/3
f 16/11/4 8/12/4 1/13/4 3/14/4 6/15/4 9/16/4 10/17/4 15/18/4 13/19/4 11/20/4 12/21/4 14/22/4
f 19/23/5 17/24/5 18/25/5 5/26/5 4/27/5 2/28/5 7/29/5 20/30/5 23/31/5 22/32/5 21/33/5 24/34/5
f 5/35/6 18/36/6 9/37/6 6/38/6
f 10/39/7 9/40/7 18/41/7 17/42/7
f 19/43/8 15/44/8 10/45/8 17/42/8
f 24/46/9 13/47/9 15/48/9 19/43/9
f 21/49/10 11/50/10 13/51/10 24/46/10
f 22/52/11 12/53/11 11/54/11 21/49/11
f 23/55/12 14/56/12 12/57/12 22/52/12
f 20/58/13 16/59/13 14/60/13 23/61/13
f 7/62/14 8/63/14 16/64/14 20/58/14
