# Blender 4.0.2
# www.blender.org
mtllib triangle-object.mtl
o 3convex
v -0.205807 -0.205141 0.150000
v -0.205807 -0.205141 -0.150000
v 0.794193 -0.205141 0.150000
v 0.794193 -0.205141 -0.150000
v -0.205807 0.494859 0.150000
v -0.205807 0.494859 -0.150000
v 0.794193 0.494859 0.150000
v 0.794193 0.494859 -0.150000
v -0.204468 0.494859 -0.150000
v 0.792854 0.494859 -0.150000
v 0.792854 0.494859 0.150000
v -0.204468 0.494859 0.150000
v 0.158418 0.296416 0.150000
v 0.294193 0.283043 0.150000
v 0.027861 0.336020 0.150000
v 0.429968 0.296416 0.150000
v 0.560525 0.336020 0.150000
v 0.680847 0.400333 0.150000
v 0.786310 0.486885 0.150000
v -0.197924 0.486885 0.150000
v -0.092461 0.400333 0.150000
v 0.786310 0.486885 -0.150000
v 0.680847 0.400333 -0.150000
v 0.158418 0.296416 -0.150000
v 0.294193 0.283043 -0.150000
v 0.027861 0.336020 -0.150000
v 0.429968 0.296416 -0.150000
v 0.560525 0.336020 -0.150000
v -0.092461 0.400333 -0.150000
v -0.197924 0.486885 -0.150000
vn -0.0000 -1.0000 -0.0000
vn 1.0000 -0.0000 -0.0000
vn -0.0000 1.0000 -0.0000
vn -1.0000 -0.0000 -0.0000
vn -0.0000 -0.0000 1.0000
vn -0.0000 -0.0000 -1.0000
vn 0.7730 0.6344 -0.0000
vn 0.6344 0.7730 -0.0000
vn 0.4714 0.8819 -0.0000
vn 0.2903 0.9569 -0.0000
vn 0.0980 0.9952 -0.0000
vn -0.0980 0.9952 -0.0000
vn -0.2903 0.9569 -0.0000
vn -0.4714 0.8819 -0.0000
vn -0.6344 0.7730 -0.0000
vn -0.7730 0.6344 -0.0000
vt 0.375000 0.000000
vt 0.625000 0.000000
vt 0.625000 0.250000
vt 0.375000 0.250000
vt 0.625000 0.500000
vt 0.375000 0.500000
vt 0.625000 0.750000
vt 0.375000 0.750000
vt 0.375000 0.749665
vt 0.625000 0.749665
vt 0.625000 0.500335
vt 0.375000 0.500335
vt 0.625000 1.000000
vt 0.375000 1.000000
vt 0.375000 0.749665
vt 0.125000 0.750000
vt 0.125000 0.500000
vt 0.372152 0.501971
vt 0.341241 0.528337
vt 0.318272 0.558417
vt 0.304127 0.591056
vt 0.299352 0.625000
vt 0.304127 0.658944
vt 0.318272 0.691583
vt 0.341241 0.721663
vt 0.372152 0.748029
vt 0.875000 0.500000
vt 0.875000 0.750000
vt 0.625000 0.749665
vt 0.627848 0.748029
vt 0.658759 0.721663
vt 0.681728 0.691583
vt 0.695873 0.658944
vt 0.700649 0.625000
vt 0.695873 0.591056
vt 0.681728 0.558417
vt 0.658759 0.528337
vt 0.627848 0.501971
vt 0.377363 0.748384
vt 0.375000 0.748384
vt 0.375000 0.751616
vt 0.377363 0.751616
vt 0.343750 0.748384
vt 0.343750 0.751616
vt 0.312500 0.748384
vt 0.312500 0.751616
vt 0.281250 0.748384
vt 0.281250 0.751616
vt 0.250000 0.748384
vt 0.250000 0.751616
vt 0.218750 0.748384
vt 0.218750 0.751616
vt 0.187500 0.748384
vt 0.187500 0.751616
vt 0.156250 0.748384
vt 0.156250 0.751616
vt 0.125000 0.748384
vt 0.125000 0.751616
vt 0.122637 0.748384
vt 0.122637 0.751617
s 0
f 1/1/1 2/2/1 4/3/1 3/4/1
f 3/4/2 4/3/2 8/5/2 7/6/2
f 6/7/3 5/8/3 12/9/3 9/10/3
f 7/6/3 8/5/3 10/11/3 11/12/3
f 5/8/4 6/7/4 2/13/4 1/14/4
f 12/15/5 5/8/5 1/16/5 3/17/5 7/6/5 11/12/5 19/18/5 18/19/5 17/20/5 16/21/5 14/22/5 13/23/5 15/24/5 21/25/5 20/26/5
f 10/11/6 8/5/6 4/27/6 2/28/6 6/7/6 9/29/6 30/30/6 29/31/6 26/32/6 24/33/6 25/34/6 27/35/6 28/36/6 23/37/6 22/38/6
f 12/39/7 20/40/7 30/41/7 9/42/7
f 20/40/8 21/43/8 29/44/8 30/41/8
f 29/44/9 21/43/9 15/45/9 26/46/9
f 26/46/10 15/45/10 13/47/10 24/48/10
f 24/48/11 13/47/11 14/49/11 25/50/11
f 25/50/12 14/49/12 16/51/12 27/52/12
f 27/52/13 16/51/13 17/53/13 28/54/13
f 28/54/14 17/53/14 18/55/14 23/56/14
f 23/56/15 18/55/15 19/57/15 22/58/15
f 11/59/16 10/60/16 22/58/16 19/57/16
